<svg width="256" height="257" viewBox="0 0 256 257" fill="none" xmlns="http://www.w3.org/2000/svg">
<rect y="0.303711" width="256" height="256" fill="#6138C4"/>
<circle cx="129.211" cy="131.14" r="87.2041" fill="#2B1560"/>
<path d="M158.868 80.3818H99.553L69.8955 131.596L99.553 182.745H158.868L188.525 131.596L158.868 80.3818Z" fill="#2B1560" stroke="white" stroke-width="6" stroke-linecap="round" stroke-linejoin="round"/>
<path d="M99.553 182.811L69.8955 131.596L99.553 80.3818" fill="#2B1560"/>
<path d="M99.553 182.811L69.8955 131.596L99.553 80.3818" stroke="white" stroke-width="6" stroke-linecap="round" stroke-linejoin="round"/>
<path d="M99.5532 182.811L129.211 131.596L99.5532 80.3818" fill="#2B1560"/>
<path d="M99.5532 182.811L129.211 131.596L99.5532 80.3818" stroke="white" stroke-width="6" stroke-linecap="round" stroke-linejoin="round"/>
<path d="M129.211 131.596H188.526" stroke="white" stroke-width="6" stroke-linecap="round" stroke-linejoin="round"/>
<path d="M42.792 143.341C48.5533 185.813 85.085 218.499 129.211 218.499C141.323 218.499 152.845 216.02 163.386 211.583H163.451" stroke="white" stroke-width="6" stroke-linecap="round" stroke-linejoin="round"/>
<path d="M182.306 62.7666C203.059 78.6202 216.415 103.542 216.415 131.596C216.415 159.65 203.583 183.659 183.55 199.512" stroke="white" stroke-width="6" stroke-linecap="round" stroke-linejoin="round"/>
<path d="M42.792 119.919C48.5533 77.4466 85.085 44.7607 129.211 44.7607C140.799 44.7607 151.863 46.9789 161.946 51.1544" stroke="white" stroke-width="6" stroke-linecap="round" stroke-linejoin="round"/>
<path d="M172.748 67.5952C179.257 67.5952 184.533 62.3375 184.533 55.8518C184.533 49.3661 179.257 44.1084 172.748 44.1084C166.24 44.1084 160.964 49.3661 160.964 55.8518C160.964 62.3375 166.24 67.5952 172.748 67.5952Z" fill="#2B1560" stroke="white" stroke-width="6" stroke-linecap="round" stroke-linejoin="round"/>
<path d="M173.926 218.043C180.434 218.043 185.71 212.785 185.71 206.299C185.71 199.813 180.434 194.556 173.926 194.556C167.418 194.556 162.142 199.813 162.142 206.299C162.142 212.785 167.418 218.043 173.926 218.043Z" fill="#2B1560" stroke="white" stroke-width="6" stroke-linecap="round" stroke-linejoin="round"/>
<path d="M42.4651 143.339C48.9735 143.339 54.2495 138.082 54.2495 131.596C54.2495 125.11 48.9735 119.853 42.4651 119.853C35.9567 119.853 30.6807 125.11 30.6807 131.596C30.6807 138.082 35.9567 143.339 42.4651 143.339Z" fill="#2B1560" stroke="white" stroke-width="6" stroke-linecap="round" stroke-linejoin="round"/>
</svg>
